<svg width="1014" height="1088" viewBox="0 0 1014 1088" fill="none" xmlns="http://www.w3.org/2000/svg">
<mask id="mask0_749_19028" style="mask-type:luminance" maskUnits="userSpaceOnUse" x="0" y="0" width="1014" height="1088">
<path d="M1013.68 0H0V1087.88H1013.68V0Z" fill="white"/>
</mask>
<g mask="url(#mask0_749_19028)">
<path d="M1039.72 91.7907V-11.7087H943.279L1039.72 91.7907ZM1041.48 96.7013L1038.31 93.3017L941.871 -10.5755L938.703 -13.9751H942.927H1039.37H1041.13V-12.0864V91.413V96.7013H1041.48Z" fill="#F3F3F3"/>
<path d="M974.959 131.83L891.19 80.0801L939.41 -9.82089L974.959 131.83ZM978.127 135.985L977.071 131.452L941.874 -10.1986L940.466 -14.7314L938.354 -10.5764L890.134 79.3246L889.078 80.8355L890.486 81.9687L974.255 133.718L978.127 135.985Z" fill="#F3F3F3"/>
<path d="M805.662 26.8187L889.431 78.5684L937.651 -10.9549L805.662 26.8187ZM801.086 26.4409L805.31 25.3077L937.299 -12.4658L941.522 -13.599L939.411 -9.44392L890.839 79.7016L889.783 81.2125L888.375 80.0793L804.606 28.3296L801.086 26.4409Z" fill="#F3F3F3"/>
<path d="M888.733 -44.9505V-1.8887L848.257 -44.9505H845.793L887.326 -0.377758L890.493 3.02185V-44.9505H888.733Z" fill="#F3F3F3"/>
<path d="M805.312 -44.9505H803.201L823.967 38.1512L740.55 -13.5985L757.444 -44.9505H755.333L738.79 -14.354L738.086 -12.843L739.494 -11.7098L823.263 40.0399L826.783 42.3063L825.727 37.7735L805.312 -44.9505Z" fill="#F3F3F3"/>
<path d="M737.731 91.7907V-11.7087H640.939L737.731 91.7907ZM739.491 96.7013L736.323 93.3017L639.531 -10.5755L636.363 -13.9751H640.587H737.027H738.787V-12.0864V91.413V96.7013H739.491Z" fill="#F3F3F3"/>
<path d="M672.971 131.83L589.202 80.0802L637.422 -9.82077L672.971 131.83ZM675.787 135.985L674.731 131.452L639.534 -10.1985L638.126 -14.7313L636.014 -10.5762L587.794 79.3247L586.738 80.8357L588.146 81.9689L671.915 133.719L675.787 135.985Z" fill="#F3F3F3"/>
<path d="M503.669 26.8189L587.439 78.5686L635.659 -10.9546L503.669 26.8189ZM499.094 26.4412L503.317 25.308L635.307 -12.4655L639.53 -13.5988L637.418 -9.44367L588.846 79.7018L587.791 81.2128L586.383 80.0795L502.613 28.3298L499.094 26.4412Z" fill="#F3F3F3"/>
<path d="M586.385 -44.95V-1.88821L546.261 -44.95H543.797L588.497 3.02234V-44.95H586.385Z" fill="#F3F3F3"/>
<path d="M502.961 -44.9505H501.201L521.967 38.1512L438.198 -13.5985L455.093 -44.9505H452.981L436.79 -14.354L435.734 -12.843L437.494 -11.7098L520.911 40.0399L524.783 42.3063L523.727 37.7735L502.961 -44.9505Z" fill="#F3F3F3"/>
<path d="M435.391 91.7905V-11.7089H338.951L435.391 91.7905ZM437.151 96.701L433.983 93.3014L337.543 -10.5757L334.375 -13.9753H338.599H435.039H436.799V-12.0867V91.4127V96.701H437.151Z" fill="#F3F3F3"/>
<path d="M370.979 131.83L287.21 80.0802L335.43 -9.82077L370.979 131.83ZM373.795 135.985L372.739 131.452L337.542 -10.1985L336.134 -14.7313L334.022 -10.5762L285.802 79.3247L284.746 80.8357L286.154 81.9689L369.923 133.719L373.795 135.985Z" fill="#F3F3F3"/>
<path d="M201.681 26.8187L285.451 78.5684L333.319 -10.9549L201.681 26.8187ZM196.754 26.4409L200.978 25.3077L332.967 -12.4658L337.19 -13.599L335.079 -9.44392L286.859 79.7016L285.803 81.2125L284.395 80.0793L200.626 28.7073L196.754 26.4409Z" fill="#F3F3F3"/>
<path d="M284.39 -44.95V-1.88815L244.265 -44.95H241.449L282.982 -0.377209L286.15 3.0224V-44.95H284.39Z" fill="#F3F3F3"/>
<path d="M200.969 -44.9505H199.209L219.975 38.1512L136.206 -13.5985L153.101 -44.9505H150.989L134.798 -14.354L133.742 -12.843L135.15 -11.7098L218.919 40.0399L222.791 42.3063L221.735 37.7735L200.969 -44.9505Z" fill="#F3F3F3"/>
<path d="M133.395 91.7902V-11.7092H36.6026L133.395 91.7902ZM135.155 96.7008L131.987 93.3012L35.5467 -10.576L32.3789 -13.9756H36.6026H133.043H134.803V-12.0869V91.4125V96.7008H135.155Z" fill="#F3F3F3"/>
<path d="M68.9869 131.83L-14.7823 80.0802L33.4378 -9.82077L68.9869 131.83ZM71.8027 135.985L70.7467 131.452L35.5496 -10.1985L34.1417 -14.7313L32.0299 -10.5762L-16.5421 78.947L-17.2461 80.8357L-15.8382 81.9689L67.931 133.719L71.8027 135.985Z" fill="#F3F3F3"/>
<path d="M-100.663 26.8187L-16.8935 78.5684L31.3266 -10.9549L-100.663 26.8187ZM-105.238 26.4409L-101.015 25.3077L30.9746 -12.4658L35.1983 -13.599L33.0864 -9.44392L-15.4856 79.7016L-16.5415 81.2125L-17.9494 80.0793L-101.367 28.7073L-105.238 26.4409Z" fill="#F3F3F3"/>
<path d="M1063.3 71.0154L956.654 40.4189L1040.42 -11.3308L1063.3 30.9755V27.1982L1041.83 -12.0863L1041.13 -13.975L1039.37 -12.8418L955.95 38.9079L952.078 41.1744L956.302 42.3076L1063.3 73.2818V71.0154Z" fill="#F3F3F3"/>
<path d="M1063.3 130.32L1040.42 172.248L956.654 120.499L1063.3 89.902V88.0133L956.302 118.61L952.078 119.743L955.95 122.009L1039.37 174.137L1041.13 174.892L1041.83 173.381L1063.3 134.097V130.32Z" fill="#F3F3F3"/>
<path d="M1039.72 69.1256V172.625H943.279L1039.72 69.1256ZM1041.48 64.5928L1038.31 67.9924L941.871 171.492L938.703 174.891H942.927H1039.37H1041.13V173.003V69.1256V64.5928H1041.48Z" fill="#F3F3F3"/>
<path d="M1039.72 279.147V175.27H943.279L1039.72 279.147ZM1041.48 283.68L1038.31 280.281L941.871 176.781L938.703 173.382H942.927H1039.37H1041.13V175.27V278.77V283.68H1041.48Z" fill="#F3F3F3"/>
<path d="M805.662 134.096L889.431 82.3461L937.651 172.247L805.662 134.096ZM801.086 134.851L805.31 135.984L937.299 173.758L941.522 174.891L939.411 170.736L890.839 81.2129L889.783 79.7019L888.375 80.8351L804.958 132.585L801.086 134.851Z" fill="#F3F3F3"/>
<path d="M974.959 29.0861L891.19 80.8358L939.41 170.737L974.959 29.0861ZM978.126 25.3087L977.071 29.8415L941.873 171.492L940.818 176.025L938.706 171.87L890.486 81.969L889.43 80.458L890.838 79.3248L974.607 27.5751L978.126 25.3087Z" fill="#F3F3F3"/>
<path d="M974.959 319.186L891.19 267.436L939.41 177.535L974.959 319.186ZM978.126 322.963L977.071 318.431L941.873 176.78L940.818 172.247L938.706 176.402L890.486 266.303L889.43 267.814L890.838 268.947L974.607 320.697L978.126 322.963Z" fill="#F3F3F3"/>
<path d="M805.662 214.177L889.431 265.927L937.651 176.026L805.662 214.177ZM801.086 213.422L805.31 212.288L937.299 174.515L941.522 173.382L939.411 177.537L890.839 267.06L889.783 268.571L888.375 267.438L804.958 215.688L801.086 213.422Z" fill="#F3F3F3"/>
<path d="M888.723 -24.5516V78.9478H792.283L888.723 -24.5516ZM890.483 -29.0845L887.315 -25.6849L790.875 77.8146L787.707 81.2142H791.931H888.371H890.131V79.3255V-24.5516V-29.0845H890.483Z" fill="#F3F3F3"/>
<path d="M888.723 185.468V81.9689H792.283L888.723 185.468ZM890.483 190.001L887.315 186.602L790.875 83.1021L787.707 79.7025H791.931H888.371H890.131V81.5912V185.468V190.001H890.483Z" fill="#F3F3F3"/>
<path d="M654.662 40.4171L738.431 -11.3326L786.651 78.5684L654.662 40.4171ZM650.086 41.1726L654.31 42.3058L786.299 80.0793L790.522 81.2125L788.411 77.0574L739.839 -12.0881L738.783 -13.599L737.375 -12.4658L653.606 39.2839L650.086 41.1726Z" fill="#F3F3F3"/>
<path d="M819.032 -44.9505L788.762 77.0579L740.542 -12.4653L792.634 -44.9505H789.114L739.486 -14.354L738.078 -13.2208L738.782 -11.7098L787.002 78.1911L789.466 82.3462L790.522 77.8134L821.143 -44.9505H819.032Z" fill="#F3F3F3"/>
<path d="M823.959 225.507L740.19 173.757L788.762 83.8565L823.959 225.507ZM826.775 229.662L825.719 225.129L790.522 83.4787L789.466 78.9459L787.354 83.101L739.134 173.002L738.078 174.513L739.486 175.646L823.255 227.018L826.775 229.662Z" fill="#F3F3F3"/>
<path d="M654.662 120.498L738.431 172.248L786.651 82.3468L654.662 120.498ZM650.086 119.743L654.31 118.609L786.299 80.8358L790.522 79.7026L788.411 83.8577L740.191 173.759L739.135 175.27L737.727 174.136L653.958 122.387L650.086 119.743Z" fill="#F3F3F3"/>
<path d="M737.731 69.1258V172.625H640.938L737.731 69.1258ZM739.49 64.593L736.323 67.9926L639.883 171.492L636.715 174.892H640.938H737.379H739.138V173.003V69.1258V64.593H739.49Z" fill="#F3F3F3"/>
<path d="M737.731 279.148V175.271H640.938L737.731 279.148ZM739.49 283.681L736.323 280.281L639.883 176.782L636.715 173.382H640.938H737.379H739.138V175.271V278.77V283.681H739.49Z" fill="#F3F3F3"/>
<path d="M503.669 134.096L587.439 82.3465L635.659 172.247L503.669 134.096ZM499.094 134.852L503.317 135.985L635.307 173.758L639.53 174.892L637.418 170.736L589.198 80.8355L588.143 79.3246L586.735 80.4578L502.613 132.585L499.094 134.852Z" fill="#F3F3F3"/>
<path d="M672.967 29.0866L589.198 80.8363L637.418 170.737L672.967 29.0866ZM675.783 25.3092L674.727 29.842L639.53 171.493L638.474 176.026L636.362 171.87L588.142 81.9695L587.086 80.4585L588.494 79.3253L672.263 27.5756L675.783 25.3092Z" fill="#F3F3F3"/>
<path d="M672.967 319.187L589.198 267.437L637.418 177.536L672.967 319.187ZM675.783 322.964L674.727 318.431L639.53 176.781L638.474 172.248L636.362 176.403L588.142 266.304L587.086 267.815L588.494 268.948L672.263 320.698L675.783 322.964Z" fill="#F3F3F3"/>
<path d="M503.669 214.177L587.439 265.927L635.659 176.026L503.669 214.177ZM499.094 213.422L503.317 212.289L635.307 174.515L639.53 173.382L637.418 177.537L589.198 267.438L588.143 268.949L586.735 267.816L502.613 215.688L499.094 213.422Z" fill="#F3F3F3"/>
<path d="M586.379 -24.552V78.9474H489.939L586.379 -24.552ZM588.491 -29.0848L585.323 -25.6852L488.883 77.8142L485.715 81.2138H489.939H586.379H588.139V79.3252V-24.552V-29.0848H588.491Z" fill="#F3F3F3"/>
<path d="M586.379 185.468V81.9688H489.939L586.379 185.468ZM588.491 190.001L585.323 186.601L488.883 83.102L485.715 79.7024H489.939H586.379H588.139V81.5911V185.468V190.001H588.491Z" fill="#F3F3F3"/>
<path d="M352.67 40.4184L436.439 -11.3313L484.659 78.5696L352.67 40.4184ZM347.742 41.1739L351.966 42.3071L483.955 80.0806L488.179 81.2138L486.067 77.0587L437.847 -12.0868L436.791 -13.9755L435.383 -12.8423L351.614 38.9075L347.742 41.1739Z" fill="#F3F3F3"/>
<path d="M517.04 -44.9505L486.77 77.0579L438.198 -12.4653L490.642 -44.9505H486.77L437.494 -14.354L435.734 -13.2208L436.79 -11.7098L485.01 78.1911L487.122 82.3462L488.178 77.8134L518.8 -44.9505H517.04Z" fill="#F3F3F3"/>
<path d="M521.967 225.507L438.198 173.757L486.418 83.8565L521.967 225.507ZM524.783 229.662L523.727 225.129L488.53 83.4787L487.474 78.9459L485.362 83.101L436.79 172.624L435.734 174.135L437.142 175.268L520.911 227.018L524.783 229.662Z" fill="#F3F3F3"/>
<path d="M352.67 120.498L436.439 172.248L484.659 82.3465L352.67 120.498ZM347.742 119.742L351.966 118.609L483.955 80.8356L488.179 79.7024L486.067 83.4797L437.847 173.381L436.791 174.892L435.383 173.758L351.614 122.009L347.742 119.742Z" fill="#F3F3F3"/>
<path d="M435.391 69.1256V172.625H338.951L435.391 69.1256ZM437.151 64.5928L433.983 67.9924L337.543 171.492L334.375 174.891H338.599H435.039H436.799V173.003V69.1256V64.5928H437.151Z" fill="#F3F3F3"/>
<path d="M435.391 279.148V175.271H338.951L435.391 279.148ZM437.151 283.681L433.983 280.281L337.543 176.781L334.375 173.382H338.599H435.039H436.799V175.271V278.77V283.681H437.151Z" fill="#F3F3F3"/>
<path d="M201.681 134.096L285.451 82.346L333.671 172.247L201.681 134.096ZM196.754 134.851L200.978 135.984L332.967 173.758L337.19 174.891L335.079 170.736L286.859 80.835L285.803 79.3241L284.395 80.4573L200.626 132.585L196.754 134.851Z" fill="#F3F3F3"/>
<path d="M370.979 29.0861L287.209 80.8358L335.43 170.737L370.979 29.0861ZM373.794 25.3087L372.739 29.8415L337.541 171.492L336.485 176.025L334.374 171.87L286.154 81.969L285.098 80.458L286.506 79.3248L369.923 27.5751L373.794 25.3087Z" fill="#F3F3F3"/>
<path d="M370.979 319.187L287.209 267.437L335.43 177.536L370.979 319.187ZM373.794 322.964L372.739 318.431L337.541 176.78L336.485 172.248L334.374 176.403L286.154 266.304L285.098 267.815L286.506 268.948L369.923 320.697L373.794 322.964Z" fill="#F3F3F3"/>
<path d="M201.681 214.177L285.451 265.927L333.671 176.026L201.681 214.177ZM196.754 213.422L200.978 212.289L332.967 174.515L337.19 173.382L335.079 177.537L286.859 267.438L285.803 268.949L284.395 267.816L200.626 215.688L196.754 213.422Z" fill="#F3F3F3"/>
<path d="M284.391 -24.5516V78.9478H187.951L284.391 -24.5516ZM286.151 -29.0845L282.983 -25.6849L186.543 77.8146L183.375 81.2142H187.599H284.039H285.799V79.3255V-24.5516V-29.0845H286.151Z" fill="#F3F3F3"/>
<path d="M284.391 185.468V81.9687H187.951L284.391 185.468ZM286.151 190.001L282.983 186.601L186.543 83.1019L183.375 79.7023H187.599H284.039H285.799V81.5909V185.468V190.001H286.151Z" fill="#F3F3F3"/>
<path d="M50.3334 40.4175L134.103 -11.3322L182.323 78.5687L50.3334 40.4175ZM45.7578 41.1729L49.9815 42.3062L181.971 80.0797L186.194 81.2129L184.083 77.0578L135.862 -12.0877L134.807 -13.5986L133.399 -12.4654L49.6295 38.9065L45.7578 41.1729Z" fill="#F3F3F3"/>
<path d="M215.055 -44.95L184.434 77.0584L136.214 -12.4648L188.306 -44.95H184.786L135.158 -14.3535L133.75 -13.2203L134.806 -11.7093L183.026 78.1916L185.138 82.3467L186.194 77.8139L216.815 -44.95H215.055Z" fill="#F3F3F3"/>
<path d="M219.983 225.508L136.214 173.758L184.434 83.8571L219.983 225.508ZM222.799 229.663L221.743 225.13L186.194 83.4794L185.138 78.9465L183.026 83.1016L134.806 172.625L133.75 174.136L135.158 175.269L218.927 227.019L222.799 229.663Z" fill="#F3F3F3"/>
<path d="M50.3334 120.498L134.103 172.248L182.323 82.3465L50.3334 120.498ZM45.7578 119.742L49.9815 118.609L181.971 80.8356L186.194 79.7024L184.083 83.4797L135.862 173.381L134.807 174.892L133.399 174.136L49.6295 122.009L45.7578 119.742Z" fill="#F3F3F3"/>
<path d="M133.395 69.1256V172.625H36.6026L133.395 69.1256ZM135.155 64.5928L131.987 67.9924L35.5467 171.492L32.3789 174.891H36.6026H133.043H134.803V173.003V69.1256V64.5928H135.155Z" fill="#F3F3F3"/>
<path d="M133.395 279.147V175.27H36.6026L133.395 279.147ZM135.155 283.68L131.987 280.281L35.5467 176.781L32.3789 173.382H36.6026H133.043H134.803V175.27V278.77V283.68H135.155Z" fill="#F3F3F3"/>
<path d="M-100.663 134.096L-16.8935 82.3465L31.3266 172.248L-100.663 134.096ZM-105.238 134.852L-101.015 135.985L30.9746 173.758L35.1983 174.892L33.0864 170.737L-15.4856 81.2133L-16.1895 79.7024L-17.5974 80.8356L-101.367 132.585L-105.238 134.852Z" fill="#F3F3F3"/>
<path d="M68.9869 29.0861L-14.7823 80.8358L33.4378 170.737L68.9869 29.0861ZM71.8027 25.3087L70.7467 29.8415L35.5496 171.492L34.4937 176.025L32.0299 171.87L-16.5421 81.969L-17.2461 80.458L-15.8382 79.3248L67.931 27.5751L71.8027 25.3087Z" fill="#F3F3F3"/>
<path d="M68.9869 319.187L-14.7823 267.059L33.4378 177.158L68.9869 319.187ZM71.8027 322.964L70.7467 318.431L35.5496 176.78L34.4937 172.248L32.0299 176.403L-16.5421 266.304L-17.2461 267.815L-15.8382 268.948L67.931 320.697L71.8027 322.964Z" fill="#F3F3F3"/>
<path d="M-100.663 214.177L-16.8935 265.927L31.3266 176.026L-100.663 214.177ZM-105.238 213.422L-101.015 212.288L30.9746 174.515L35.1983 173.382L33.0864 177.537L-15.4856 267.06L-16.1895 268.571L-17.5974 267.438L-101.367 215.688L-105.238 213.422Z" fill="#F3F3F3"/>
<path d="M1063.3 258.372L956.654 227.776L1040.42 176.026L1063.3 217.955V214.177L1041.83 174.893L1041.13 173.382L1039.37 174.138L955.95 225.887L952.078 228.531L956.302 229.665L1063.3 260.261V258.372Z" fill="#F3F3F3"/>
<path d="M1063.3 317.299L1040.42 359.605L956.654 307.855L1063.3 277.259V274.992L956.302 305.967L952.078 307.1L955.95 309.366L1039.37 361.116L1041.13 362.249L1041.83 360.36L1063.3 321.076V317.299Z" fill="#F3F3F3"/>
<path d="M1039.72 256.483V359.982H943.279L1039.72 256.483ZM1041.48 251.572L1038.31 254.972L941.871 358.471L938.703 361.871H942.927H1039.37H1041.13V359.982V256.483V251.572H1041.48Z" fill="#F3F3F3"/>
<path d="M1039.72 466.126V362.626H943.279L1039.72 466.126ZM1041.48 471.036L1038.31 467.637L941.871 364.137L938.703 360.738H942.927H1039.37H1041.13V362.626V466.126V471.036H1041.48Z" fill="#F3F3F3"/>
<path d="M805.662 321.453L889.431 269.704L937.651 359.605L805.662 321.453ZM801.086 321.831L805.31 322.964L937.299 360.738L941.522 361.871L939.411 357.716L890.839 268.571L889.783 267.06L888.375 268.193L804.606 319.942L801.086 321.831Z" fill="#F3F3F3"/>
<path d="M974.959 216.443L891.19 268.193L939.41 358.094L974.959 216.443ZM978.126 212.288L977.071 216.821L941.873 358.471L940.818 363.004L938.706 358.849L890.486 268.948L889.43 267.437L890.838 266.304L974.607 214.554L978.126 212.288Z" fill="#F3F3F3"/>
<path d="M974.959 506.166L891.19 454.416L939.41 364.515L974.959 506.166ZM978.126 510.321L977.071 505.788L941.873 364.137L940.818 359.604L938.706 363.76L890.486 453.661L889.43 455.171L890.838 456.305L974.607 508.054L978.126 510.321Z" fill="#F3F3F3"/>
<path d="M805.662 401.154L889.431 452.904L937.651 363.003L805.662 401.154ZM801.086 400.777L805.31 399.643L937.299 361.87L941.522 360.737L939.411 364.892L890.839 454.037L889.783 455.548L888.375 454.415L804.606 402.665L801.086 400.777Z" fill="#F3F3F3"/>
<path d="M888.723 162.804V266.303H792.283L888.723 162.804ZM890.483 157.893L887.315 161.293L790.875 264.792L787.707 268.192H791.931H888.371H890.131V266.303V162.804V157.893H890.483Z" fill="#F3F3F3"/>
<path d="M888.723 372.824V268.947H792.283L888.723 372.824ZM890.483 377.357L887.315 373.957L790.875 270.458L787.707 267.058H791.931H888.371H890.131V268.947V372.446V377.357H890.483Z" fill="#F3F3F3"/>
<path d="M654.662 227.774L738.431 176.024L786.651 265.925L654.662 227.774ZM650.086 228.529L654.31 229.662L786.299 267.436L790.522 268.569L788.411 264.414L740.191 174.513L739.135 173.002L737.727 174.135L653.958 225.885L650.086 228.529Z" fill="#F3F3F3"/>
<path d="M823.959 122.764L740.19 174.514L788.762 264.415L823.959 122.764ZM826.775 118.609L825.719 123.142L790.522 264.793L789.466 269.325L787.354 265.17L739.134 175.269L738.078 173.758L739.486 172.625L823.255 121.253L826.775 118.609Z" fill="#F3F3F3"/>
<path d="M823.959 412.487L740.19 360.737L788.762 271.214L823.959 412.487ZM826.775 416.642L825.719 412.109L790.522 270.459L789.466 265.926L787.354 270.081L739.134 359.982L738.078 361.493L739.486 362.626L823.255 414.376L826.775 416.642Z" fill="#F3F3F3"/>
<path d="M654.662 307.853L738.431 359.603L786.651 269.702L654.662 307.853ZM650.086 307.098L654.31 305.965L786.299 268.191L790.522 267.058L788.411 271.213L740.191 361.114L739.135 362.625L737.727 361.492L653.958 309.742L650.086 307.098Z" fill="#F3F3F3"/>
<path d="M737.731 256.482V359.982H640.938L737.731 256.482ZM739.49 251.572L736.323 254.971L639.883 358.471L636.715 361.87H640.938H737.379H739.138V359.982V256.482V251.572H739.49Z" fill="#F3F3F3"/>
<path d="M737.731 466.124V362.625H640.938L737.731 466.124ZM739.49 471.035L736.323 467.635L639.883 364.136L636.715 360.736H640.938H737.379H739.138V362.625V466.124V471.035H739.49Z" fill="#F3F3F3"/>
<path d="M503.669 321.453L587.439 269.703L635.659 359.604L503.669 321.453ZM499.094 321.831L503.317 322.964L635.307 360.737L639.53 361.871L637.418 357.716L588.846 268.57L587.791 267.059L586.383 268.192L502.613 319.942L499.094 321.831Z" fill="#F3F3F3"/>
<path d="M672.967 216.442L589.198 268.192L637.418 358.093L672.967 216.442ZM675.783 212.287L674.727 216.82L639.53 358.471L638.474 363.004L636.362 358.849L588.142 268.948L587.086 267.437L588.494 266.303L672.263 214.554L675.783 212.287Z" fill="#F3F3F3"/>
<path d="M672.967 506.165L589.198 454.416L637.418 364.515L672.967 506.165ZM675.783 510.32L674.727 505.788L639.53 364.137L638.474 359.604L636.362 363.759L588.142 453.66L587.086 455.171L588.494 456.304L672.263 508.054L675.783 510.32Z" fill="#F3F3F3"/>
<path d="M503.669 401.155L587.439 452.904L635.659 363.003L503.669 401.155ZM499.094 400.777L503.317 399.644L635.307 361.87L639.53 360.737L637.418 364.892L589.198 454.793L588.143 456.304L586.735 455.171L502.965 403.421L499.094 400.777Z" fill="#F3F3F3"/>
<path d="M586.379 162.804V266.303H489.939L586.379 162.804ZM588.491 157.893L585.323 161.293L488.883 264.792L485.715 268.192H489.939H586.379H588.139V266.303V162.804V157.893H588.491Z" fill="#F3F3F3"/>
<path d="M586.379 372.824V268.947H489.939L586.379 372.824ZM588.491 377.357L585.323 373.957L488.883 270.458L485.715 267.058H489.939H586.379H588.139V268.947V372.446V377.357H588.491Z" fill="#F3F3F3"/>
<path d="M352.67 227.774L436.439 176.025L484.659 265.925L352.67 227.774ZM347.742 228.53L351.966 229.663L483.955 267.436L488.179 268.57L486.067 264.792L437.847 174.891L436.791 173.38L435.383 174.514L351.614 226.263L347.742 228.53Z" fill="#F3F3F3"/>
<path d="M521.967 122.764L438.198 174.514L486.418 264.415L521.967 122.764ZM524.783 118.609L523.727 123.142L488.53 264.792L487.474 269.325L485.362 265.17L436.79 175.647L435.734 174.136L437.142 173.003L520.911 121.253L524.783 118.609Z" fill="#F3F3F3"/>
<path d="M521.967 412.487L438.198 360.737L486.418 270.836L521.967 412.487ZM524.783 416.642L523.727 412.109L488.53 270.458L487.474 265.926L485.362 270.081L436.79 359.982L435.734 361.493L437.142 362.626L520.911 414.376L524.783 416.642Z" fill="#F3F3F3"/>
<path d="M352.67 307.853L436.439 359.603L484.659 269.702L352.67 307.853ZM347.742 307.098L351.966 305.965L483.955 268.191L488.179 267.058L486.067 271.213L437.847 361.114L436.791 362.625L435.383 361.492L351.614 309.742L347.742 307.098Z" fill="#F3F3F3"/>
<path d="M435.391 256.483V359.983H338.951L435.391 256.483ZM437.151 251.573L433.983 254.972L337.543 358.472L334.375 361.871H338.599H435.039H436.799V359.983V256.483V251.573H437.151Z" fill="#F3F3F3"/>
<path d="M435.391 466.126V362.626H338.951L435.391 466.126ZM437.151 471.036L433.983 467.637L337.543 364.137L334.375 360.738H338.599H435.039H436.799V362.626V466.126V471.036H437.151Z" fill="#F3F3F3"/>
<path d="M201.681 321.454L285.451 269.704L333.671 359.605L201.681 321.454ZM196.754 321.832L200.978 322.965L332.967 360.738L337.19 361.872L335.079 357.716L286.859 268.571L285.803 267.06L284.395 268.193L200.626 319.565L196.754 321.832Z" fill="#F3F3F3"/>
<path d="M370.979 216.444L287.209 268.193L335.43 358.094L370.979 216.444ZM373.794 212.288L372.739 216.821L337.541 358.472L336.485 363.005L334.374 358.85L286.154 268.949L285.098 267.438L286.506 266.305L369.923 214.555L373.794 212.288Z" fill="#F3F3F3"/>
<path d="M370.979 506.167L287.209 454.417L335.43 364.516L370.979 506.167ZM373.794 510.322L372.739 505.789L337.541 364.139L336.485 359.606L334.374 363.761L286.154 453.662L285.098 455.173L286.506 456.306L370.275 508.056L373.794 510.322Z" fill="#F3F3F3"/>
<path d="M201.681 401.155L285.451 452.905L333.671 363.004L201.681 401.155ZM196.754 400.777L200.978 399.644L332.967 361.871L337.19 360.737L335.079 364.893L286.859 454.793L285.803 456.304L284.395 455.171L200.626 403.421L196.754 400.777Z" fill="#F3F3F3"/>
<path d="M284.391 162.803V266.302H187.951L284.391 162.803ZM286.151 157.892L282.983 161.292L186.543 265.169L183.375 268.191H187.599H284.039H285.799V266.302V162.803V157.892H286.151Z" fill="#F3F3F3"/>
<path d="M284.391 372.823V268.946H187.951L284.391 372.823ZM286.151 377.356L282.983 373.956L186.543 270.457L183.375 267.057H187.599H284.039H285.799V268.946V372.445V377.356H286.151Z" fill="#F3F3F3"/>
<path d="M50.3334 227.774L134.103 176.024L182.323 265.925L50.3334 227.774ZM45.7578 228.529L49.9815 229.662L181.971 267.436L186.194 268.569L184.083 264.792L135.862 174.891L134.807 173.38L133.399 174.135L49.6295 225.885L45.7578 228.529Z" fill="#F3F3F3"/>
<path d="M219.983 122.763L136.214 174.513L184.434 264.414L219.983 122.763ZM222.799 118.608L221.743 123.141L186.194 264.792L185.138 269.324L183.026 265.169L134.806 175.646L133.75 174.135L135.158 173.002L218.927 121.252L222.799 118.608Z" fill="#F3F3F3"/>
<path d="M219.979 412.486L136.209 360.736L184.43 270.835L219.979 412.486ZM222.794 416.641L221.739 412.108L186.541 270.458L185.485 265.925L183.374 270.08L135.154 359.981L134.098 361.492L135.506 362.625L219.275 414.375L222.794 416.641Z" fill="#F3F3F3"/>
<path d="M50.3334 307.853L134.103 359.602L182.323 269.701L50.3334 307.853ZM45.7578 307.097L49.9815 305.964L181.971 268.19L186.194 267.057L184.083 271.212L135.862 361.113L134.807 362.624L133.399 361.491L49.6295 309.364L45.7578 307.097Z" fill="#F3F3F3"/>
<path d="M133.395 256.483V359.982H36.6026L133.395 256.483ZM135.155 251.572L131.987 254.972L35.5467 358.471L32.3789 361.871H36.6026H133.043H134.803V359.982V256.483V251.572H135.155Z" fill="#F3F3F3"/>
<path d="M133.395 466.126V362.626H36.6026L133.395 466.126ZM135.155 471.036L131.987 467.637L35.5467 364.137L32.3789 360.738H36.6026H133.043H134.803V362.626V466.126V471.036H135.155Z" fill="#F3F3F3"/>
<path d="M-100.663 321.454L-16.8935 269.704L31.3266 359.227L-100.663 321.454ZM-105.238 321.831L-101.015 322.965L30.9746 360.738L35.1983 361.871L33.0864 357.716L-15.4856 268.571L-16.5415 267.06L-17.9494 268.193L-101.367 319.565L-105.238 321.831Z" fill="#F3F3F3"/>
<path d="M68.9869 216.444L-14.7823 268.193L33.4378 358.094L68.9869 216.444ZM71.8027 212.289L70.7467 216.821L35.5496 358.472L34.4937 363.005L32.3819 358.85L-16.5421 269.327L-17.2461 267.438L-15.8382 266.305L67.931 214.555L71.8027 212.289Z" fill="#F3F3F3"/>
<path d="M68.9865 506.166L-14.7827 454.416L33.4374 364.515L68.9865 506.166ZM71.8022 510.321L70.7463 505.788L35.5492 364.137L34.4933 359.605L32.3814 363.76L-15.8386 453.661L-16.8945 455.172L-15.4866 456.305L68.2825 508.054L71.8022 510.321Z" fill="#F3F3F3"/>
<path d="M-100.663 401.155L-16.8935 452.905L31.3266 363.004L-100.663 401.155ZM-105.238 400.777L-101.015 399.644L30.9746 361.871L35.1983 360.737L33.0864 364.893L-15.1336 454.793L-16.1895 456.304L-17.5974 455.171L-101.367 403.044L-105.238 400.777Z" fill="#F3F3F3"/>
<path d="M1063.3 445.351L956.654 414.755L1040.42 363.005L1063.3 405.311V401.534L1041.83 362.25L1041.13 360.361L1039.37 361.494L955.95 413.244L952.078 415.51L956.302 416.643L1063.3 447.618V445.351Z" fill="#F3F3F3"/>
<path d="M1063.3 504.656L1040.42 546.584L956.654 494.834L1063.3 464.238V462.349L956.302 492.946L952.078 494.079L955.95 496.723L1039.37 548.473L1041.13 549.228L1041.83 547.717L1063.3 508.433V504.656Z" fill="#F3F3F3"/>
<path d="M1039.72 443.461V546.961H943.279L1039.72 443.461ZM1041.48 438.928L1038.31 442.328L941.871 545.827L938.703 549.227H942.927H1039.37H1041.13V547.338V443.839V438.928H1041.48Z" fill="#F3F3F3"/>
<path d="M1039.72 653.483V549.984H943.279L1039.72 653.483ZM1041.48 658.016L1038.31 654.617L941.871 551.117L938.703 547.718H942.927H1039.37H1041.13V549.606V653.106V658.016H1041.48Z" fill="#F3F3F3"/>
<path d="M805.662 508.432L889.431 456.682L937.651 546.583L805.662 508.432ZM801.086 509.187L805.31 510.32L937.299 548.094L941.522 549.227L939.411 545.072L890.839 455.549L889.783 454.038L888.375 455.171L804.606 506.921L801.086 509.187Z" fill="#F3F3F3"/>
<path d="M974.959 403.422L891.19 455.171L939.41 545.072L974.959 403.422ZM978.126 399.644L977.071 404.177L941.873 545.828L940.818 550.361L938.706 546.206L890.486 456.305L889.43 454.794L890.838 453.661L974.607 401.911L978.126 399.644Z" fill="#F3F3F3"/>
<path d="M974.959 693.522L891.19 641.772L939.41 551.871L974.959 693.522ZM978.126 697.299L977.071 692.766L941.873 551.116L940.818 546.583L938.706 550.738L890.486 640.639L889.43 642.15L890.838 643.283L974.607 695.033L978.126 697.299Z" fill="#F3F3F3"/>
<path d="M805.662 588.513L889.431 640.262L937.651 550.361L805.662 588.513ZM801.086 587.757L805.31 586.624L937.299 548.851L941.522 547.717L939.411 551.872L890.839 641.396L889.783 642.907L888.375 641.773L804.606 590.024L801.086 587.757Z" fill="#F3F3F3"/>
<path d="M888.723 349.782V453.659H792.283L888.723 349.782ZM890.483 345.25L887.315 348.649L790.875 452.149L787.707 455.548H791.931H888.371H890.131V453.659V350.16V345.25H890.483Z" fill="#F3F3F3"/>
<path d="M888.723 559.804V456.304H792.283L888.723 559.804ZM890.483 564.337L887.315 560.937L790.875 457.438L787.707 454.038H791.931H888.371H890.131V455.927V559.426V564.337H890.483Z" fill="#F3F3F3"/>
<path d="M654.662 414.753L738.431 363.003L786.651 452.904L654.662 414.753ZM650.086 415.508L654.31 416.641L786.299 454.415L790.522 455.548L788.411 451.393L740.191 361.492L739.135 359.981L737.727 361.114L653.958 412.864L650.086 415.508Z" fill="#F3F3F3"/>
<path d="M823.959 310.121L740.19 361.87L788.41 451.771L823.959 310.121ZM826.775 305.965L825.719 310.498L790.522 452.149L789.466 456.682L787.354 452.527L739.134 362.626L738.078 361.115L739.486 359.982L823.255 308.232L826.775 305.965Z" fill="#F3F3F3"/>
<path d="M823.959 599.843L740.542 548.094L788.762 458.193L823.959 599.843ZM826.775 603.998L825.719 599.466L790.522 457.815L789.466 453.282L787.354 457.437L739.134 547.338L738.078 548.849L739.486 549.982L823.255 601.732L826.775 603.998Z" fill="#F3F3F3"/>
<path d="M654.662 494.833L738.431 546.583L786.651 456.682L654.662 494.833ZM650.086 494.078L654.31 492.945L786.299 455.171L790.522 454.038L788.411 458.193L740.191 548.094L739.135 549.605L737.727 548.472L653.958 496.722L650.086 494.078Z" fill="#F3F3F3"/>
<path d="M737.731 443.461V546.961H640.938L737.731 443.461ZM739.49 438.928L736.323 442.328L639.883 545.827L636.715 549.227H640.938H737.379H739.138V547.338V443.839V438.928H739.49Z" fill="#F3F3F3"/>
<path d="M737.731 653.484V549.985H640.938L737.731 653.484ZM739.49 658.017L736.323 654.617L639.883 551.118L636.715 547.718H640.938H737.379H739.138V549.607V653.106V658.017H739.49Z" fill="#F3F3F3"/>
<path d="M503.669 508.432L587.439 456.682L635.659 546.583L503.669 508.432ZM499.094 509.187L503.317 510.321L635.307 548.094L639.53 549.227L637.418 545.072L589.198 455.171L588.143 453.66L586.735 454.793L502.965 506.543L499.094 509.187Z" fill="#F3F3F3"/>
<path d="M672.967 403.423L589.198 455.172L637.418 545.073L672.967 403.423ZM675.783 399.645L674.727 404.178L639.53 545.829L638.474 550.362L636.362 546.207L588.142 456.306L587.086 454.795L588.494 453.662L672.263 401.912L675.783 399.645Z" fill="#F3F3F3"/>
<path d="M672.967 693.522L589.198 641.772L637.418 551.871L672.967 693.522ZM675.783 697.299L674.727 692.766L639.53 551.116L638.474 546.583L636.362 550.738L588.142 640.639L587.086 642.15L588.494 643.283L672.263 695.033L675.783 697.299Z" fill="#F3F3F3"/>
<path d="M503.669 588.513L587.439 640.263L635.659 550.362L503.669 588.513ZM499.094 587.758L503.317 586.625L635.307 548.851L639.53 547.718L637.418 551.873L589.198 641.774L588.143 643.285L586.735 642.152L502.965 590.402L499.094 587.758Z" fill="#F3F3F3"/>
<path d="M586.379 349.782V453.659H489.939L586.379 349.782ZM588.491 345.249L585.323 348.649L488.883 452.148L485.715 455.548H489.939H586.379H588.139V453.659V350.16V345.249H588.491Z" fill="#F3F3F3"/>
<path d="M586.379 559.804V456.304H489.939L586.379 559.804ZM588.491 564.337L585.323 560.937L488.531 457.438L485.363 454.038H489.587H586.027H587.787V455.927V559.426V564.337H588.491Z" fill="#F3F3F3"/>
<path d="M352.67 414.753L436.439 363.003L484.659 452.904L352.67 414.753ZM347.742 415.508L351.966 416.641L483.955 454.415L488.179 455.548L486.067 451.393L437.847 361.492L436.791 359.981L435.383 361.114L351.614 412.864L347.742 415.508Z" fill="#F3F3F3"/>
<path d="M521.967 310.121L438.198 361.87L486.418 451.771L521.967 310.121ZM524.783 305.966L523.727 310.498L488.53 452.149L487.474 456.682L485.362 452.527L436.79 362.626L435.734 361.115L437.142 359.982L520.911 308.232L524.783 305.966Z" fill="#F3F3F3"/>
<path d="M521.967 599.843L438.198 548.094L486.418 458.193L521.967 599.843ZM524.783 603.999L523.727 599.466L488.53 457.815L487.474 453.282L485.362 457.437L436.79 546.961L435.734 548.472L437.142 549.605L520.911 601.354L524.783 603.999Z" fill="#F3F3F3"/>
<path d="M352.67 494.833L436.439 546.583L484.659 456.682L352.67 494.833ZM347.742 494.078L351.966 492.945L483.955 455.171L488.179 454.038L486.067 458.193L437.847 548.094L436.791 549.605L435.383 548.472L351.614 496.722L347.742 494.078Z" fill="#F3F3F3"/>
<path d="M435.391 443.462V546.961H338.951L435.391 443.462ZM437.151 438.929L433.983 442.328L337.543 545.828L334.375 549.227H338.599H435.039H436.799V547.339V443.839V438.929H437.151Z" fill="#F3F3F3"/>
<path d="M435.391 653.483V549.984H338.951L435.391 653.483ZM437.151 658.016L433.983 654.617L337.543 551.117L334.375 547.718H338.599H435.039H436.799V549.606V653.106V658.016H437.151Z" fill="#F3F3F3"/>
<path d="M201.681 508.432L285.451 456.682L333.671 546.583L201.681 508.432ZM196.754 509.187L200.978 510.32L332.967 548.094L337.19 549.227L335.079 545.072L286.859 455.171L285.803 453.66L284.395 454.793L200.626 506.543L196.754 509.187Z" fill="#F3F3F3"/>
<path d="M370.979 403.422L287.209 455.172L335.43 545.073L370.979 403.422ZM373.794 399.645L372.739 404.177L337.541 545.828L336.485 550.361L334.374 546.206L286.154 456.305L285.098 454.794L286.506 453.661L370.275 401.911L373.794 399.645Z" fill="#F3F3F3"/>
<path d="M370.979 693.522L287.209 641.772L335.43 551.871L370.979 693.522ZM373.794 697.299L372.739 692.766L337.541 551.116L336.485 546.583L334.374 550.738L286.154 640.639L285.098 642.15L286.506 643.283L370.275 695.033L373.794 697.299Z" fill="#F3F3F3"/>
<path d="M201.681 588.513L285.451 640.262L333.671 550.361L201.681 588.513ZM196.754 587.757L200.978 586.624L332.967 548.851L337.19 547.717L335.079 551.872L286.859 641.773L285.803 643.284L284.395 642.151L200.626 590.401L196.754 587.757Z" fill="#F3F3F3"/>
<path d="M284.391 349.782V453.659H187.951L284.391 349.782ZM286.151 345.25L282.983 348.649L186.543 452.149L183.375 455.548H187.599H284.039H285.799V453.659V350.16V345.25H286.151Z" fill="#F3F3F3"/>
<path d="M284.391 559.804V456.305H187.951L284.391 559.804ZM286.151 564.337L282.983 560.938L186.543 457.438L183.375 454.039H187.599H284.039H285.799V455.927V559.427V564.337H286.151Z" fill="#F3F3F3"/>
<path d="M50.3334 414.753L134.103 363.003L182.323 452.904L50.3334 414.753ZM45.7578 415.508L49.9815 416.641L181.971 454.415L186.194 455.548L184.083 451.393L135.862 361.492L134.807 359.981L133.399 361.114L49.6295 413.242L45.7578 415.508Z" fill="#F3F3F3"/>
<path d="M219.979 310.121L136.209 361.87L184.43 451.771L219.979 310.121ZM222.794 305.965L221.739 310.498L186.541 452.149L185.485 456.682L183.374 452.527L135.154 362.626L134.098 361.115L135.506 359.982L219.275 308.232L222.794 305.965Z" fill="#F3F3F3"/>
<path d="M219.979 599.843L136.209 548.094L184.43 458.193L219.979 599.843ZM222.794 603.998L221.739 599.466L186.541 457.815L185.485 453.282L183.374 457.437L135.154 547.338L134.098 548.849L135.506 549.982L219.275 601.732L222.794 603.998Z" fill="#F3F3F3"/>
<path d="M50.3334 494.834L134.103 546.584L182.323 456.683L50.3334 494.834ZM45.7578 494.079L49.9815 492.945L181.971 455.172L186.194 454.039L184.083 458.194L135.862 548.095L134.807 549.606L133.399 548.472L49.6295 496.723L45.7578 494.079Z" fill="#F3F3F3"/>
<path d="M133.395 443.461V546.96H36.6026L133.395 443.461ZM135.155 438.928L131.987 442.327L35.5467 545.827L32.3789 549.227H36.6026H133.043H134.803V547.338V443.838V438.928H135.155Z" fill="#F3F3F3"/>
<path d="M133.395 653.483V549.984H36.6026L133.395 653.483ZM135.155 658.016L131.987 654.617L35.5467 551.117L32.3789 547.718H36.6026H133.043H134.803V549.606V653.106V658.016H135.155Z" fill="#F3F3F3"/>
<path d="M-100.663 508.431L-16.8935 456.681L31.3266 546.582L-100.663 508.431ZM-105.238 509.186L-101.015 510.319L30.9746 548.093L35.1983 549.226L33.0864 545.071L-15.1336 455.17L-16.1895 453.659L-17.5974 454.792L-101.367 506.92L-105.238 509.186Z" fill="#F3F3F3"/>
<path d="M68.9865 403.422L-14.7827 455.171L33.4374 545.072L68.9865 403.422ZM71.8022 399.644L70.7463 404.177L35.5492 545.828L34.4933 550.361L32.3814 546.206L-15.8386 456.305L-16.8945 454.794L-15.4866 453.66L68.2825 401.911L71.8022 399.644Z" fill="#F3F3F3"/>
<path d="M68.9865 693.522L-14.7827 641.772L33.4374 551.871L68.9865 693.522ZM71.8022 697.299L70.7463 692.766L35.5492 551.116L34.4933 546.583L32.3814 550.738L-15.8386 640.639L-16.8945 642.15L-15.4866 643.283L68.2825 695.033L71.8022 697.299Z" fill="#F3F3F3"/>
<path d="M-100.663 588.513L-16.8935 640.262L31.3266 550.361L-100.663 588.513ZM-105.238 587.757L-101.015 586.624L30.9746 548.85L35.1983 547.717L33.0864 551.872L-15.1336 641.773L-16.1895 643.284L-17.5974 642.151L-101.367 590.024L-105.238 587.757Z" fill="#F3F3F3"/>
<path d="M1063.3 632.705L956.654 602.109L1040.42 550.359L1063.3 592.288V588.51L1041.83 549.226L1041.13 547.715L1039.37 548.47L955.95 600.22L952.078 602.864L956.302 603.998L1063.3 634.594V632.705Z" fill="#F3F3F3"/>
<path d="M1063.3 691.632L1040.42 733.938L956.654 682.188L1063.3 651.592V649.325L956.302 680.3L952.078 681.433L955.95 683.699L1039.37 735.449L1041.13 736.582L1041.83 734.694L1063.3 695.409V691.632Z" fill="#F3F3F3"/>
<path d="M1039.72 630.818V734.318H943.279L1039.72 630.818ZM1041.48 625.908L1038.31 629.307L941.871 733.185L938.703 736.584H942.927H1039.37H1041.13V734.696V631.196V625.908H1041.48Z" fill="#F3F3F3"/>
<path d="M1039.72 840.462V736.963H943.279L1039.72 840.462ZM1041.48 845.373L1038.31 841.973L941.871 738.474L938.703 735.074H942.927H1039.37H1041.13V736.963V840.462V845.373H1041.48Z" fill="#F3F3F3"/>
<path d="M805.662 695.79L889.431 644.04L937.651 733.941L805.662 695.79ZM801.086 696.168L805.31 697.301L937.299 735.075L941.522 736.208L939.411 732.053L890.839 642.907L889.783 641.396L888.375 642.529L804.606 694.279L801.086 696.168Z" fill="#F3F3F3"/>
<path d="M974.959 590.779L891.542 642.529L939.762 732.43L974.959 590.779ZM978.126 586.624L977.071 591.157L941.873 732.808L940.818 737.341L938.706 733.185L890.486 643.285L889.43 641.774L890.838 640.64L974.607 588.891L978.126 586.624Z" fill="#F3F3F3"/>
<path d="M974.959 880.502L891.19 828.752L939.41 738.851L974.959 880.502ZM978.126 884.657L977.071 880.124L941.873 738.473L940.818 733.941L938.706 738.096L890.486 827.997L889.43 829.508L890.838 830.641L974.607 882.391L978.126 884.657Z" fill="#F3F3F3"/>
<path d="M805.662 775.492L889.431 827.241L937.651 737.341L805.662 775.492ZM801.086 775.114L805.31 773.981L937.299 736.207L941.522 735.074L939.411 739.229L890.839 828.375L889.783 829.886L888.375 828.752L804.606 777.003L801.086 775.114Z" fill="#F3F3F3"/>
<path d="M888.723 537.139V640.638H792.283L888.723 537.139ZM890.483 532.606L887.315 536.005L790.875 639.505L787.707 642.904H791.931H888.371H890.131V641.016V537.516V532.606H890.483Z" fill="#F3F3F3"/>
<path d="M888.723 747.159V643.66H792.283L888.723 747.159ZM890.483 751.692L887.315 748.293L790.875 644.793L787.707 641.394H791.931H888.371H890.131V643.282V746.782V751.692H890.483Z" fill="#F3F3F3"/>
<path d="M654.662 602.108L738.431 550.359L786.651 640.26L654.662 602.108ZM650.086 602.864L654.31 603.997L786.299 641.771L790.522 642.904L788.411 638.749L740.191 548.848L739.135 547.337L737.727 548.47L653.958 600.22L650.086 602.864Z" fill="#F3F3F3"/>
<path d="M823.959 497.1L740.19 548.849L788.762 638.75L823.959 497.1ZM826.775 492.944L825.719 497.477L790.522 639.128L789.466 643.661L787.354 639.506L739.134 549.605L738.078 548.094L739.486 546.961L823.255 495.211L826.775 492.944Z" fill="#F3F3F3"/>
<path d="M823.959 787.2L740.19 735.45L788.41 645.549L823.959 787.2ZM826.775 790.977L825.719 786.445L790.522 644.794L789.466 640.261L787.354 644.416L739.134 734.317L738.078 735.828L739.486 736.961L823.255 788.711L826.775 790.977Z" fill="#F3F3F3"/>
<path d="M654.662 682.189L738.431 733.939L786.651 644.038L654.662 682.189ZM650.086 681.434L654.31 680.3L786.299 642.527L790.522 641.394L788.411 645.549L740.191 735.45L739.135 736.961L737.727 735.827L653.958 684.078L650.086 681.434Z" fill="#F3F3F3"/>
<path d="M737.731 630.819V734.318H640.939L737.731 630.819ZM739.491 625.908L736.323 629.308L639.531 733.185L636.363 736.585H640.587H737.027H738.787V734.696V631.197V625.908H739.491Z" fill="#F3F3F3"/>
<path d="M737.731 840.462V736.963H640.938L737.731 840.462ZM739.49 845.373L736.323 841.973L639.883 738.474L636.715 735.074H640.938H737.379H739.138V736.963V840.462V845.373H739.49Z" fill="#F3F3F3"/>
<path d="M503.669 695.789L587.439 644.039L635.659 733.94L503.669 695.789ZM499.094 696.167L503.317 697.3L635.307 735.073L639.53 736.207L637.418 732.051L589.198 642.15L588.143 640.64L586.735 641.773L502.965 693.522L499.094 696.167Z" fill="#F3F3F3"/>
<path d="M672.967 590.779L589.198 642.529L637.418 732.43L672.967 590.779ZM675.783 586.624L674.727 591.157L639.53 732.807L638.474 737.34L636.362 733.185L588.142 643.284L587.086 641.773L588.494 640.64L672.263 588.89L675.783 586.624Z" fill="#F3F3F3"/>
<path d="M672.967 880.502L589.198 828.753L637.418 738.852L672.967 880.502ZM675.783 884.657L674.727 880.124L639.53 738.474L638.474 733.941L636.362 738.096L588.142 827.997L587.086 829.508L588.494 830.641L672.263 882.391L675.783 884.657Z" fill="#F3F3F3"/>
<path d="M503.669 775.491L587.439 827.24L635.659 737.339L503.669 775.491ZM499.094 775.113L503.317 773.98L635.307 736.206L639.53 735.073L637.418 739.228L589.198 829.129L588.143 830.64L586.735 829.507L502.965 777.757L499.094 775.113Z" fill="#F3F3F3"/>
<path d="M586.379 537.138V640.638H489.939L586.379 537.138ZM588.491 532.605L585.323 536.005L488.883 639.505L485.715 642.904H489.939H586.379H588.139V641.016V537.516V532.605H588.491Z" fill="#F3F3F3"/>
<path d="M586.379 747.159V643.66H489.939L586.379 747.159ZM588.491 751.692L585.323 748.292L488.883 644.793L485.715 641.393H489.939H586.379H588.139V643.282V746.782V751.692H588.491Z" fill="#F3F3F3"/>
<path d="M352.67 602.109L436.439 550.359L484.659 640.26L352.67 602.109ZM347.742 602.864L351.966 603.998L483.955 641.771L488.179 642.904L486.067 638.749L437.847 548.848L436.791 547.337L435.383 548.47L351.614 600.22L347.742 602.864Z" fill="#F3F3F3"/>
<path d="M521.967 497.1L438.198 548.849L486.418 638.75L521.967 497.1ZM524.783 492.945L523.727 497.477L488.53 639.128L487.474 643.661L485.362 639.506L436.79 549.983L435.734 548.472L437.142 547.338L520.911 495.589L524.783 492.945Z" fill="#F3F3F3"/>
<path d="M521.967 787.2L438.198 735.45L486.418 645.549L521.967 787.2ZM524.783 790.977L523.727 786.445L488.53 644.794L487.474 640.261L485.362 644.416L436.79 734.317L435.734 735.828L437.142 736.961L520.911 788.711L524.783 790.977Z" fill="#F3F3F3"/>
<path d="M352.67 682.189L436.439 733.939L484.659 644.038L352.67 682.189ZM347.742 681.433L351.966 680.3L483.955 642.527L488.179 641.393L486.067 645.549L437.847 735.45L436.791 736.96L435.383 735.827L351.614 684.078L347.742 681.433Z" fill="#F3F3F3"/>
<path d="M435.391 630.819V734.318H338.951L435.391 630.819ZM437.151 625.908L433.983 629.308L337.543 733.185L334.375 736.585H338.599H435.039H436.799V734.696V631.197V625.908H437.151Z" fill="#F3F3F3"/>
<path d="M435.391 840.461V736.962H338.951L435.391 840.461ZM437.151 845.372L433.983 841.972L337.543 738.473L334.375 735.073H338.599H435.039H436.799V736.962V840.461V845.372H437.151Z" fill="#F3F3F3"/>
<path d="M201.681 695.789L285.451 644.039L333.671 733.94L201.681 695.789ZM196.754 696.167L200.978 697.3L332.967 735.073L337.19 736.207L335.079 732.051L286.859 642.15L285.803 640.64L284.395 641.773L200.626 693.522L196.754 696.167Z" fill="#F3F3F3"/>
<path d="M370.979 590.779L287.209 642.529L335.43 732.43L370.979 590.779ZM373.794 586.624L372.739 591.157L337.541 732.807L336.485 737.34L334.374 733.185L286.154 643.284L285.098 641.773L286.506 640.64L370.275 588.89L373.794 586.624Z" fill="#F3F3F3"/>
<path d="M370.979 880.502L287.209 828.753L335.43 738.852L370.979 880.502ZM373.794 884.657L372.739 880.124L337.541 738.474L336.485 733.941L334.374 738.096L286.154 827.997L285.098 829.508L286.506 830.641L370.275 882.391L373.794 884.657Z" fill="#F3F3F3"/>
<path d="M201.681 775.491L285.451 827.241L333.671 737.34L201.681 775.491ZM196.754 775.114L200.978 773.98L332.967 736.207L337.19 735.074L335.079 739.229L286.859 829.13L285.803 830.641L284.395 829.507L200.626 777.758L196.754 775.114Z" fill="#F3F3F3"/>
<path d="M284.391 537.139V640.638H187.951L284.391 537.139ZM286.151 532.606L282.983 536.005L186.543 639.505L183.375 642.904H187.599H284.039H285.799V641.016V537.516V532.606H286.151Z" fill="#F3F3F3"/>
<path d="M284.391 747.159V643.66H187.951L284.391 747.159ZM286.151 751.692L282.983 748.293L186.543 644.793L183.375 641.394H187.599H284.039H285.799V643.282V746.782V751.692H286.151Z" fill="#F3F3F3"/>
<path d="M50.3334 602.11L134.103 550.36L182.323 640.261L50.3334 602.11ZM45.7578 602.865L49.9815 603.999L181.971 641.772L186.194 642.905L184.083 638.75L135.862 548.849L134.807 547.338L133.399 548.472L49.6295 600.221L45.7578 602.865Z" fill="#F3F3F3"/>
<path d="M219.979 497.1L136.209 548.85L184.43 638.75L219.979 497.1ZM222.794 492.945L221.739 497.478L186.541 639.128L185.485 643.661L183.374 639.506L135.154 549.605L134.098 548.094L135.506 546.961L219.275 495.211L222.794 492.945Z" fill="#F3F3F3"/>
<path d="M219.979 787.2L136.209 735.45L184.43 645.549L219.979 787.2ZM222.794 790.977L221.739 786.445L186.541 644.794L185.485 640.261L183.374 644.416L135.154 734.317L134.098 735.828L135.506 736.961L219.275 788.711L222.794 790.977Z" fill="#F3F3F3"/>
<path d="M50.3334 682.189L134.103 733.939L182.323 644.038L50.3334 682.189ZM45.7578 681.434L49.9815 680.3L181.971 642.527L186.194 641.394L184.083 645.549L135.862 735.45L134.807 736.961L133.399 735.827L49.6295 683.7L45.7578 681.434Z" fill="#F3F3F3"/>
<path d="M133.395 630.819V734.318H36.6026L133.395 630.819ZM135.155 625.908L131.987 629.308L35.5467 733.185L32.3789 736.585H36.6026H133.043H134.803V734.696V631.197V625.908H135.155Z" fill="#F3F3F3"/>
<path d="M133.395 840.462V736.963H36.6026L133.395 840.462ZM135.155 845.373L131.987 841.973L35.5467 738.474L32.3789 735.074H36.6026H133.043H134.803V736.963V840.462V845.373H135.155Z" fill="#F3F3F3"/>
<path d="M-100.663 695.789L-16.8935 644.039L31.3266 733.94L-100.663 695.789ZM-105.238 696.167L-101.015 697.3L30.9746 735.073L35.1983 736.207L33.0864 732.052L-15.1336 642.151L-16.1895 640.64L-17.5974 641.773L-101.367 693.9L-105.238 696.167Z" fill="#F3F3F3"/>
<path d="M68.9869 590.779L-14.7823 642.529L33.4378 732.43L68.9869 590.779ZM71.8027 586.624L70.7467 591.157L35.5496 732.808L34.4937 737.341L32.0299 733.185L-16.1902 643.285L-17.2461 641.774L-15.8382 640.64L67.931 588.891L71.8027 586.624Z" fill="#F3F3F3"/>
<path d="M68.9865 880.502L-14.7827 828.753L33.4374 738.852L68.9865 880.502ZM71.8022 884.657L70.7463 880.124L35.5492 738.474L34.4933 733.941L32.3814 738.096L-15.8386 827.997L-16.8945 829.508L-15.4866 830.641L68.2825 882.391L71.8022 884.657Z" fill="#F3F3F3"/>
<path d="M-100.663 775.492L-16.8935 827.619L31.3266 737.718L-100.663 775.492ZM-105.238 775.114L-101.015 773.981L30.9746 736.207L35.1983 735.074L33.0864 739.229L-15.1336 829.13L-16.1895 830.641L-17.5974 829.508L-101.367 777.38L-105.238 775.114Z" fill="#F3F3F3"/>
<path d="M1063.3 819.686L956.654 789.089L1040.42 737.34L1063.3 779.646V775.868L1041.83 736.584L1041.13 734.695L1039.37 735.829L955.95 787.578L952.078 789.845L956.302 790.978L1063.3 821.952V819.686Z" fill="#F3F3F3"/>
<path d="M1063.3 878.989L1040.42 920.918L956.654 869.168L1063.3 838.572V836.683L956.302 867.28L952.078 868.413L955.95 871.057L1039.37 922.807L1041.13 923.562L1041.83 922.051L1063.3 882.767V878.989Z" fill="#F3F3F3"/>
<path d="M1039.72 817.796V921.296H943.279L1039.72 817.796ZM1041.48 813.264L1038.31 816.663L941.871 920.163L938.703 923.562H942.927H1039.37H1041.13V921.674V818.174V813.264H1041.48Z" fill="#F3F3F3"/>
<path d="M1039.72 1027.82V924.319H943.279L1039.72 1027.82ZM1041.48 1032.35L1038.31 1028.95L941.871 925.452L938.703 922.052H942.927H1039.37H1041.13V923.941V1027.82V1032.35H1041.48Z" fill="#F3F3F3"/>
<path d="M805.662 882.766L889.431 831.017L937.651 920.918L805.662 882.766ZM801.086 883.522L805.31 884.655L937.299 922.429L941.522 923.562L939.411 919.407L890.839 829.883L889.783 828.372L888.375 829.506L804.606 881.255L801.086 883.522Z" fill="#F3F3F3"/>
<path d="M974.959 777.757L891.19 829.506L939.41 919.407L974.959 777.757ZM978.126 773.979L977.071 778.512L941.873 920.163L940.818 924.696L938.706 920.54L890.486 830.64L889.43 829.129L890.838 827.995L974.607 776.246L978.126 773.979Z" fill="#F3F3F3"/>
<path d="M974.959 1067.86L891.19 1016.11L939.41 926.206L974.959 1067.86ZM978.126 1071.63L977.071 1067.1L941.873 925.451L940.818 920.918L938.706 925.073L890.486 1014.97L889.43 1016.48L890.838 1017.62L974.607 1069.37L978.126 1071.63Z" fill="#F3F3F3"/>
<path d="M805.662 962.847L889.431 1014.6L937.651 924.696L805.662 962.847ZM801.086 962.092L805.31 960.959L937.299 923.185L941.522 922.052L939.411 926.207L890.839 1015.73L889.783 1017.24L888.375 1016.11L804.606 964.358L801.086 962.092Z" fill="#F3F3F3"/>
<path d="M888.723 724.118V827.618H792.283L888.723 724.118ZM890.483 719.586L887.315 722.985L790.875 826.485L787.707 829.884H791.931H888.371H890.131V827.996V724.496V719.586H890.483Z" fill="#F3F3F3"/>
<path d="M888.723 934.138V830.638H792.283L888.723 934.138ZM890.483 939.048L887.315 935.649L790.875 832.149L787.707 828.75H791.931H888.371H890.131V830.638V934.138V939.048H890.483Z" fill="#F3F3F3"/>
<path d="M654.662 789.088L738.431 737.338L786.651 827.239L654.662 789.088ZM650.086 789.844L654.31 790.977L786.299 828.75L790.522 829.884L788.411 825.728L740.191 735.827L739.135 734.317L737.727 735.45L653.958 787.199L650.086 789.844Z" fill="#F3F3F3"/>
<path d="M823.96 684.456L740.19 736.205L788.41 826.106L823.96 684.456ZM826.775 680.301L825.719 684.833L790.522 826.484L789.466 831.017L787.355 826.862L738.782 736.961L737.727 735.45L739.134 734.317L822.904 682.567L826.775 680.301Z" fill="#F3F3F3"/>
<path d="M823.959 974.179L740.19 922.429L788.41 832.528L823.959 974.179ZM826.775 978.334L825.719 973.801L790.522 832.151L789.466 827.618L787.354 831.773L739.134 921.674L738.078 923.185L739.486 924.318L823.255 976.068L826.775 978.334Z" fill="#F3F3F3"/>
<path d="M654.662 869.169L738.431 920.918L786.651 831.017L654.662 869.169ZM650.086 868.413L654.31 867.28L786.299 829.507L790.522 828.373L788.411 832.528L739.839 922.052L738.783 923.563L737.375 922.429L653.606 870.68L650.086 868.413Z" fill="#F3F3F3"/>
<path d="M737.731 817.796V921.296H640.938L737.731 817.796ZM739.49 813.263L736.323 816.663L639.883 920.162L636.715 923.562H640.938H737.379H739.138V921.673V818.174V813.263H739.49Z" fill="#F3F3F3"/>
<path d="M737.731 1027.82V924.318H640.938L737.731 1027.82ZM739.49 1032.35L736.323 1028.95L639.883 925.451L636.715 922.051H640.938H737.379H739.138V923.94V1027.82V1032.35H739.49Z" fill="#F3F3F3"/>
<path d="M503.669 882.766L587.439 831.016L635.659 920.917L503.669 882.766ZM499.094 883.522L503.317 884.655L635.307 922.428L639.53 923.562L637.418 919.407L589.198 829.506L588.143 827.995L586.735 829.128L502.965 880.878L499.094 883.522Z" fill="#F3F3F3"/>
<path d="M672.967 777.757L589.198 829.506L637.418 919.407L672.967 777.757ZM675.783 773.979L674.727 778.512L639.53 920.163L638.474 924.696L636.362 920.54L588.142 830.64L587.086 829.129L588.494 827.995L672.263 776.246L675.783 773.979Z" fill="#F3F3F3"/>
<path d="M672.967 1067.86L589.198 1016.11L637.418 926.206L672.967 1067.86ZM675.783 1071.63L674.727 1067.1L639.53 925.451L638.474 920.918L636.362 925.073L588.142 1014.97L587.086 1016.48L588.494 1017.62L672.263 1069.37L675.783 1071.63Z" fill="#F3F3F3"/>
<path d="M503.669 962.847L587.439 1014.6L635.659 924.696L503.669 962.847ZM499.094 962.092L503.317 960.959L635.307 923.185L639.53 922.052L637.418 926.207L589.198 1016.11L588.143 1017.62L586.735 1016.49L502.965 964.736L499.094 962.092Z" fill="#F3F3F3"/>
<path d="M586.379 724.119V827.618H489.939L586.379 724.119ZM588.491 719.586L585.323 722.985L488.883 826.485L485.715 829.885H489.939H586.379H588.139V827.996V724.496V719.586H588.491Z" fill="#F3F3F3"/>
<path d="M586.379 934.138V830.638H489.939L586.379 934.138ZM588.491 939.048L585.323 935.649L488.883 832.149L485.715 828.75H489.939H586.379H588.139V830.638V934.138V939.048H588.491Z" fill="#F3F3F3"/>
<path d="M352.67 789.088L436.439 737.338L484.659 827.239L352.67 789.088ZM347.742 789.844L351.966 790.977L483.955 828.75L488.179 829.884L486.067 825.728L437.847 735.827L436.791 734.317L435.383 735.45L351.614 787.199L347.742 789.844Z" fill="#F3F3F3"/>
<path d="M521.967 684.456L438.198 736.205L486.418 826.106L521.967 684.456ZM524.783 680.301L523.727 684.833L488.53 826.484L487.474 831.017L485.362 826.862L436.79 736.961L435.734 735.45L437.142 734.317L520.911 682.567L524.783 680.301Z" fill="#F3F3F3"/>
<path d="M521.967 974.179L438.198 922.429L486.418 832.528L521.967 974.179ZM524.783 978.334L523.727 973.801L488.53 832.15L487.474 827.618L485.362 831.773L436.79 921.296L435.734 922.807L437.142 923.94L520.911 975.69L524.783 978.334Z" fill="#F3F3F3"/>
<path d="M352.67 869.169L436.439 920.918L484.659 831.017L352.67 869.169ZM347.742 868.413L351.966 867.28L483.955 829.507L488.179 828.373L486.067 832.528L437.847 922.052L436.791 923.563L435.383 922.429L351.614 870.68L347.742 868.413Z" fill="#F3F3F3"/>
<path d="M435.391 817.796V921.295H338.951L435.391 817.796ZM437.151 813.263L433.983 816.663L337.543 920.162L334.375 923.562H338.599H435.039H436.799V921.673V818.174V813.263H437.151Z" fill="#F3F3F3"/>
<path d="M435.391 1027.82V924.318H338.951L435.391 1027.82ZM437.151 1032.35L433.983 1028.95L337.543 925.451L334.375 922.051H338.599H435.039H436.799V923.94V1027.82V1032.35H437.151Z" fill="#F3F3F3"/>
<path d="M201.681 882.766L285.451 831.016L333.671 920.917L201.681 882.766ZM196.754 883.521L200.978 884.654L332.967 922.428L337.19 923.561L335.079 919.406L286.859 829.505L285.803 827.994L284.395 829.127L200.626 880.877L196.754 883.521Z" fill="#F3F3F3"/>
<path d="M370.979 777.757L287.209 829.506L335.43 919.407L370.979 777.757ZM373.794 773.979L372.739 778.512L337.541 920.163L336.485 924.696L334.374 920.54L286.154 830.64L285.098 829.129L286.506 827.995L370.275 776.246L373.794 773.979Z" fill="#F3F3F3"/>
<path d="M370.979 1067.86L287.209 1016.11L335.43 926.206L370.979 1067.86ZM373.794 1071.63L372.739 1067.1L337.541 925.45L336.485 920.917L334.374 925.072L286.154 1014.97L285.098 1016.48L286.506 1017.62L369.923 1069.37L373.794 1071.63Z" fill="#F3F3F3"/>
<path d="M201.681 962.847L285.451 1014.6L333.671 924.696L201.681 962.847ZM196.754 962.091L200.978 960.958L332.967 923.185L337.19 922.051L335.079 926.207L286.859 1016.11L285.803 1017.62L284.395 1016.49L200.626 964.735L196.754 962.091Z" fill="#F3F3F3"/>
<path d="M284.391 724.118V827.618H187.951L284.391 724.118ZM286.151 719.586L282.983 722.985L186.543 826.485L183.375 829.884H187.599H284.039H285.799V827.996V724.496V719.586H286.151Z" fill="#F3F3F3"/>
<path d="M284.391 934.138V830.638H187.951L284.391 934.138ZM286.151 939.048L282.983 935.649L186.543 832.149L183.375 828.75H187.599H284.039H285.799V830.638V934.138V939.048H286.151Z" fill="#F3F3F3"/>
<path d="M50.3334 789.088L134.103 737.338L182.323 827.239L50.3334 789.088ZM45.7578 789.844L49.9815 790.977L181.971 828.75L186.194 829.884L184.083 825.728L135.862 735.827L134.807 734.317L133.399 735.45L49.6295 787.577L45.7578 789.844Z" fill="#F3F3F3"/>
<path d="M219.983 684.456L136.214 736.205L184.434 826.106L219.983 684.456ZM222.799 680.301L221.743 684.833L186.546 826.484L185.49 831.017L183.378 826.862L134.806 736.961L133.75 735.45L135.158 734.317L218.927 682.567L222.799 680.301Z" fill="#F3F3F3"/>
<path d="M219.979 974.179L136.209 922.429L184.43 832.528L219.979 974.179ZM222.794 978.334L221.739 973.801L186.541 832.151L185.485 827.618L183.374 831.773L135.154 921.674L134.098 923.185L135.506 924.318L219.275 976.068L222.794 978.334Z" fill="#F3F3F3"/>
<path d="M50.3334 869.169L134.103 920.919L182.323 831.396L50.3334 869.169ZM45.7578 868.414L49.9815 867.281L181.971 829.507L186.194 828.374L184.083 832.529L135.862 922.052L134.807 923.563L133.399 922.43L49.6295 871.058L45.7578 868.414Z" fill="#F3F3F3"/>
<path d="M133.395 817.796V921.296H36.6026L133.395 817.796ZM135.155 813.264L131.987 816.663L35.5467 920.163L32.3789 923.562H36.6026H133.043H134.803V921.674V818.174V813.264H135.155Z" fill="#F3F3F3"/>
<path d="M133.395 1027.82V924.318H36.6026L133.395 1027.82ZM135.155 1032.35L131.987 1028.95L35.5467 925.451L32.3789 922.052H36.6026H133.043H134.803V923.941V1027.82V1032.35H135.155Z" fill="#F3F3F3"/>
<path d="M-100.663 882.766L-16.8935 831.016L31.3266 920.917L-100.663 882.766ZM-105.238 883.522L-101.015 884.655L30.9746 922.428L35.1983 923.562L33.0864 919.407L-15.1336 829.506L-16.1895 827.995L-17.5974 829.128L-101.367 881.255L-105.238 883.522Z" fill="#F3F3F3"/>
<path d="M68.9865 777.757L-14.7827 829.506L33.4374 919.407L68.9865 777.757ZM71.8022 773.979L70.7463 778.512L35.5492 920.163L34.4933 924.696L32.3814 920.54L-15.8386 830.64L-16.8945 829.129L-15.4866 827.995L68.2825 776.246L71.8022 773.979Z" fill="#F3F3F3"/>
<path d="M68.9865 1067.86L-14.7827 1016.11L33.4374 926.206L68.9865 1067.86ZM71.8022 1071.63L70.7463 1067.1L35.5492 925.451L34.4933 920.918L32.3814 925.073L-15.8386 1014.97L-16.8945 1016.48L-15.4866 1017.62L67.9306 1069.37L71.8022 1071.63Z" fill="#F3F3F3"/>
<path d="M-100.663 962.847L-16.8935 1014.6L31.3266 924.696L-100.663 962.847ZM-105.238 962.092L-101.015 960.959L30.9746 923.185L35.1983 922.052L33.0864 926.207L-15.1336 1016.11L-16.1895 1017.62L-17.5974 1016.49L-101.367 964.358L-105.238 962.092Z" fill="#F3F3F3"/>
<path d="M1063.3 1007.04L956.654 976.446L1040.42 924.697L1063.3 967.003V962.848L1041.83 923.563L1041.13 922.052L1039.37 922.808L955.95 974.935L952.078 977.202L956.302 978.335L1063.3 1008.93V1007.04Z" fill="#F3F3F3"/>
<path d="M1063.3 1065.97L1040.42 1108.28L956.654 1056.53L1063.3 1025.93V1023.66L956.302 1054.64L952.078 1055.77L955.95 1058.04L1039.37 1109.79L1041.13 1110.92L1041.83 1109.41L1063.3 1069.75V1065.97Z" fill="#F3F3F3"/>
<path d="M1039.72 1005.15V1108.65H943.279L1039.72 1005.15ZM1041.48 1000.24L1038.31 1003.64L941.871 1107.14L938.703 1110.54H942.927H1039.37H1041.13V1108.65V1005.15V1000.24H1041.48Z" fill="#F3F3F3"/>
<path d="M805.662 1070.12L889.431 1018.37L937.651 1108.27L805.662 1070.12ZM801.086 1070.88L805.31 1072.01L937.299 1109.78L941.522 1110.92L939.411 1106.76L890.839 1017.24L889.783 1015.73L888.375 1016.86L804.606 1068.61L801.086 1070.88Z" fill="#F3F3F3"/>
<path d="M974.959 965.112L891.19 1016.86L939.41 1106.76L974.959 965.112ZM978.126 960.957L977.071 965.49L941.873 1107.14L940.818 1111.67L938.706 1107.52L890.486 1017.62L889.43 1016.11L890.838 1014.97L974.607 963.223L978.126 960.957Z" fill="#F3F3F3"/>
<path d="M888.723 911.476V1014.98H792.283L888.723 911.476ZM890.483 906.943L887.315 910.343L790.875 1013.84L787.707 1017.24H791.931H888.371H890.131V1015.35V911.854V906.943H890.483Z" fill="#F3F3F3"/>
<path d="M888.723 1121.5V1018H792.283L888.723 1121.5ZM890.483 1126.03L887.315 1122.63L790.875 1019.13L787.707 1015.73H791.931H888.371H890.131V1017.62V1121.12V1126.03H890.483Z" fill="#F3F3F3"/>
<path d="M654.662 976.447L738.431 924.697L786.651 1014.6L654.662 976.447ZM650.086 977.202L654.31 978.336L786.299 1016.11L790.522 1017.24L788.411 1013.09L740.191 923.186L739.135 921.675L737.727 922.809L653.606 974.936L650.086 977.202Z" fill="#F3F3F3"/>
<path d="M823.959 871.436L740.19 923.186L788.41 1013.09L823.959 871.436ZM826.775 867.659L825.719 872.192L790.522 1013.84L789.466 1018.37L787.354 1014.22L739.134 924.319L738.078 922.808L739.486 921.675L823.255 869.925L826.775 867.659Z" fill="#F3F3F3"/>
<path d="M823.959 1161.54L740.19 1109.79L788.41 1019.89L823.959 1161.54ZM826.775 1165.31L825.719 1160.78L790.522 1019.13L789.466 1014.6L787.354 1018.75L739.134 1108.65L738.078 1110.16L739.486 1111.3L823.255 1163.05L826.775 1165.31Z" fill="#F3F3F3"/>
<path d="M654.662 1056.53L738.431 1108.28L786.651 1018.38L654.662 1056.53ZM650.086 1055.77L654.31 1054.64L786.299 1016.87L790.522 1015.73L788.411 1019.89L740.191 1109.79L739.135 1111.3L737.727 1110.17L653.606 1058.04L650.086 1055.77Z" fill="#F3F3F3"/>
<path d="M737.731 1005.15V1108.65H640.938L737.731 1005.15ZM739.49 1000.24L736.323 1003.64L639.883 1107.14L636.715 1110.54H640.938H737.379H739.138V1108.65V1005.15V1000.24H739.49Z" fill="#F3F3F3"/>
<path d="M503.669 1070.12L587.439 1018.37L635.659 1108.27L503.669 1070.12ZM499.094 1070.88L503.317 1072.01L635.307 1109.78L639.53 1110.92L637.418 1106.76L589.198 1016.86L588.143 1015.35L586.735 1016.48L502.965 1068.23L499.094 1070.88Z" fill="#F3F3F3"/>
<path d="M672.967 965.112L589.198 1016.86L637.418 1106.76L672.967 965.112ZM675.783 960.957L674.727 965.49L639.53 1107.14L638.474 1111.67L636.362 1107.52L588.142 1017.62L587.086 1016.11L588.494 1014.97L672.263 963.224L675.783 960.957Z" fill="#F3F3F3"/>
<path d="M586.379 911.476V1014.98H489.939L586.379 911.476ZM588.491 906.943L585.323 910.343L488.883 1013.84L485.715 1017.24H489.939H586.379H588.139V1015.35V911.854V906.943H588.491Z" fill="#F3F3F3"/>
<path d="M586.379 1121.5V1018H489.939L586.379 1121.5ZM588.491 1126.03L585.323 1122.63L488.883 1019.13L485.715 1015.73H489.939H586.379H588.139V1017.62V1121.12V1126.03H588.491Z" fill="#F3F3F3"/>
<path d="M352.67 976.446L436.439 924.696L484.659 1014.6L352.67 976.446ZM347.742 977.201L351.966 978.335L483.955 1016.11L488.179 1017.24L486.067 1013.09L437.847 923.185L436.791 922.052L435.383 923.185L351.614 974.935L347.742 977.201Z" fill="#F3F3F3"/>
<path d="M521.967 871.436L438.198 923.186L486.418 1013.09L521.967 871.436ZM524.783 867.659L523.727 872.192L488.53 1013.84L487.474 1018.38L485.362 1014.22L436.79 924.319L435.734 922.808L437.142 921.675L520.911 869.925L524.783 867.659Z" fill="#F3F3F3"/>
<path d="M521.967 1161.54L438.198 1109.79L486.418 1019.89L521.967 1161.54ZM524.783 1165.31L523.727 1160.78L488.53 1019.13L487.474 1014.6L485.362 1018.75L436.79 1108.65L435.734 1110.16L437.142 1111.3L520.911 1163.05L524.783 1165.31Z" fill="#F3F3F3"/>
<path d="M352.67 1056.53L436.439 1108.28L484.659 1018.38L352.67 1056.53ZM347.742 1055.77L351.966 1054.64L483.955 1016.87L488.179 1015.73L486.067 1019.89L437.847 1109.79L436.791 1110.92L435.383 1109.79L351.614 1058.04L347.742 1055.77Z" fill="#F3F3F3"/>
<path d="M435.391 1005.15V1108.65H338.951L435.391 1005.15ZM437.151 1000.24L433.983 1003.64L337.543 1107.14L334.375 1110.54H338.599H435.039H436.799V1108.65V1005.15V1000.24H437.151Z" fill="#F3F3F3"/>
<path d="M201.681 1070.12L285.451 1018.37L333.671 1108.28L201.681 1070.12ZM196.754 1070.88L200.978 1072.01L332.967 1109.79L337.19 1110.92L335.079 1106.76L286.859 1016.86L285.803 1015.35L284.395 1016.49L200.626 1068.24L196.754 1070.88Z" fill="#F3F3F3"/>
<path d="M370.979 965.114L287.209 1016.86L335.43 1106.76L370.979 965.114ZM373.794 960.959L372.739 965.492L337.541 1107.14L336.485 1111.68L334.374 1107.52L286.154 1017.62L285.098 1016.11L286.506 1014.97L370.275 963.225L373.794 960.959Z" fill="#F3F3F3"/>
<path d="M284.391 911.475V1014.97H187.951L284.391 911.475ZM286.151 906.943L282.983 910.342L186.543 1013.84L183.375 1017.24H187.599H284.039H285.799V1015.35V911.853V906.943H286.151Z" fill="#F3F3F3"/>
<path d="M284.391 1121.5V1018H187.951L284.391 1121.5ZM286.151 1126.03L282.983 1122.63L186.543 1019.13L183.375 1015.73H187.599H284.039H285.799V1017.62V1121.12V1126.03H286.151Z" fill="#F3F3F3"/>
<path d="M50.3334 976.445L134.103 924.695L182.323 1014.6L50.3334 976.445ZM45.7578 977.2L49.9815 978.334L181.971 1016.11L186.194 1017.24L184.083 1013.09L135.862 923.184L134.807 921.673L133.399 922.807L49.6295 974.934L45.7578 977.2Z" fill="#F3F3F3"/>
<path d="M219.979 871.435L136.209 923.185L184.43 1013.09L219.979 871.435ZM222.794 867.658L221.739 872.191L186.541 1013.84L185.485 1018.37L183.374 1014.22L135.154 924.318L134.098 922.807L135.506 921.674L219.275 869.924L222.794 867.658Z" fill="#F3F3F3"/>
<path d="M219.979 1161.54L136.209 1109.79L184.43 1019.88L219.979 1161.54ZM222.794 1165.31L221.739 1160.78L186.541 1019.13L185.485 1014.6L183.374 1018.75L135.154 1108.65L134.098 1110.16L135.506 1111.3L219.275 1163.05L222.794 1165.31Z" fill="#F3F3F3"/>
<path d="M50.3334 1056.53L134.103 1108.28L182.323 1018.38L50.3334 1056.53ZM45.7578 1055.77L49.9815 1054.64L181.971 1016.86L186.194 1015.73L184.083 1019.89L135.862 1109.79L134.807 1111.3L133.399 1110.16L49.6295 1058.04L45.7578 1055.77Z" fill="#F3F3F3"/>
<path d="M133.395 1005.15V1108.65H36.6026L133.395 1005.15ZM135.155 1000.24L131.987 1003.64L35.5467 1107.52L32.3789 1110.92H36.6026H133.043H134.803V1109.03V1005.15V1000.24H135.155Z" fill="#F3F3F3"/>
<path d="M-100.663 1070.12L-16.8935 1018.37L31.3266 1108.27L-100.663 1070.12ZM-105.238 1070.88L-101.015 1072.01L30.9746 1109.79L35.1983 1110.92L33.0864 1106.76L-15.1336 1016.86L-16.1895 1015.35L-17.5974 1016.48L-101.367 1068.23L-105.238 1070.88Z" fill="#F3F3F3"/>
<path d="M68.9865 965.112L-14.7827 1016.86L33.4374 1106.76L68.9865 965.112ZM71.8022 960.957L70.7463 965.49L35.5492 1107.14L34.4933 1111.67L32.3814 1107.52L-15.8386 1017.62L-16.8945 1016.11L-15.4866 1014.97L68.2825 963.224L71.8022 960.957Z" fill="#F3F3F3"/>
<path d="M777.147 1182.69H779.259L740.542 1110.54L823.959 1058.79L792.986 1182.69H795.097L825.719 1059.17L826.775 1054.64L823.255 1056.9L739.486 1108.65L738.078 1109.79L738.782 1111.3L777.147 1182.69Z" fill="#F3F3F3"/>
<path d="M475.155 1182.69H477.267L438.198 1110.54L521.967 1058.79L490.994 1182.69H492.754L523.727 1059.17L524.783 1054.64L520.911 1056.9L437.494 1108.65L435.734 1109.79L436.79 1111.3L475.155 1182.69Z" fill="#F3F3F3"/>
<path d="M172.819 1182.69H174.931L136.214 1110.54L219.983 1058.79L189.009 1182.69H190.769L221.743 1059.17L222.799 1054.64L218.927 1056.9L135.158 1108.65L133.75 1109.79L134.806 1111.3L172.819 1182.69Z" fill="#F3F3F3"/>
</g>
</svg>
